<svg width="120" height="24" viewBox="0 0 120 24" fill="none" xmlns="http://www.w3.org/2000/svg">
<g clip-path="url(#clip0_1_54)">
<rect x="26" y="2" width="20" height="20" fill="white"/>
<path d="M46.2 5L48.1 7L35.6 18.6L35.5 18.5L32.9 15.7L29 11.6L31 9.8L35.6 14.9L46.2 5Z" fill="#333333"/>
</g>
<rect x="2" y="2" width="20" height="20" stroke="#E1C34B" stroke-width="2"/>
<rect x="50" y="2" width="20" height="20" rx="10" stroke="#E1C34B" stroke-width="2"/>
<rect x="74" y="2" width="20" height="20" rx="10" fill="white"/>
<g clip-path="url(#clip1_1_54)">
<rect x="98" y="2" width="20" height="20" rx="10" fill="white"/>
<path d="M118.2 5L120.1 7L107.6 18.6L107.5 18.5L104.9 15.7L101 11.6L103 9.8L107.6 14.9L118.2 5Z" fill="#333333"/>
</g>
<defs>
<clipPath id="clip0_1_54">
<rect width="24" height="24" fill="white" transform="translate(24)"/>
</clipPath>
<clipPath id="clip1_1_54">
<rect width="24" height="24" fill="white" transform="translate(96)"/>
</clipPath>
</defs>
</svg>
